<svg xmlns="http://www.w3.org/2000/svg" viewBox="0 0 400 250" fill="none">
  <defs>
    <linearGradient id="bg2" x1="0" y1="0" x2="400" y2="250" gradientUnits="userSpaceOnUse">
      <stop offset="0%" stop-color="#fef3c7"/>
      <stop offset="100%" stop-color="#fde68a"/>
    </linearGradient>
    <linearGradient id="accent2" x1="0" y1="0" x2="1" y2="1">
      <stop offset="0%" stop-color="#f59e0b"/>
      <stop offset="100%" stop-color="#d97706"/>
    </linearGradient>
  </defs>
  <rect width="400" height="250" rx="16" fill="url(#bg2)"/>
  <!-- Chip / IC -->
  <rect x="155" y="85" width="90" height="70" rx="6" fill="url(#accent2)" opacity="0.85"/>
  <rect x="170" y="100" width="60" height="40" rx="3" fill="#fef3c7" opacity="0.6"/>
  <!-- Chip pins top -->
  <line x1="175" y1="85" x2="175" y2="72" stroke="#d97706" stroke-width="2.5" stroke-linecap="round"/>
  <line x1="190" y1="85" x2="190" y2="72" stroke="#d97706" stroke-width="2.5" stroke-linecap="round"/>
  <line x1="205" y1="85" x2="205" y2="72" stroke="#d97706" stroke-width="2.5" stroke-linecap="round"/>
  <line x1="220" y1="85" x2="220" y2="72" stroke="#d97706" stroke-width="2.5" stroke-linecap="round"/>
  <!-- Chip pins bottom -->
  <line x1="175" y1="155" x2="175" y2="168" stroke="#d97706" stroke-width="2.5" stroke-linecap="round"/>
  <line x1="190" y1="155" x2="190" y2="168" stroke="#d97706" stroke-width="2.5" stroke-linecap="round"/>
  <line x1="205" y1="155" x2="205" y2="168" stroke="#d97706" stroke-width="2.5" stroke-linecap="round"/>
  <line x1="220" y1="155" x2="220" y2="168" stroke="#d97706" stroke-width="2.5" stroke-linecap="round"/>
  <!-- Chip pins left -->
  <line x1="155" y1="100" x2="142" y2="100" stroke="#d97706" stroke-width="2.5" stroke-linecap="round"/>
  <line x1="155" y1="120" x2="142" y2="120" stroke="#d97706" stroke-width="2.5" stroke-linecap="round"/>
  <line x1="155" y1="140" x2="142" y2="140" stroke="#d97706" stroke-width="2.5" stroke-linecap="round"/>
  <!-- Chip pins right -->
  <line x1="245" y1="100" x2="258" y2="100" stroke="#d97706" stroke-width="2.5" stroke-linecap="round"/>
  <line x1="245" y1="120" x2="258" y2="120" stroke="#d97706" stroke-width="2.5" stroke-linecap="round"/>
  <line x1="245" y1="140" x2="258" y2="140" stroke="#d97706" stroke-width="2.5" stroke-linecap="round"/>
  <!-- Waveform - power trace -->
  <polyline points="40,195 55,195 58,175 62,210 68,180 72,200 78,185 84,205 90,178 96,198 102,188 108,202 114,182 120,195 135,195 140,170 145,215 150,180 155,200 162,175 168,208 174,182 180,198 186,172 192,205 198,185 204,195 220,195 225,165 230,218 236,178 242,200 248,175 254,210 260,182 266,198 272,188 278,200 284,185 290,195 310,195 315,180 320,205 325,188 330,198 335,195 360,195" stroke="#d97706" stroke-width="1.8" fill="none" opacity="0.6"/>
  <!-- EM wave arcs right of chip -->
  <path d="M270 115 Q285 100 270 85" stroke="#f59e0b" stroke-width="1.5" fill="none" opacity="0.4"/>
  <path d="M280 120 Q300 100 280 80" stroke="#f59e0b" stroke-width="1.5" fill="none" opacity="0.3"/>
  <path d="M290 125 Q315 100 290 75" stroke="#f59e0b" stroke-width="1.5" fill="none" opacity="0.2"/>
  <!-- Magnifying glass -->
  <g transform="translate(320, 90)">
    <circle cx="0" cy="0" r="16" stroke="#d97706" stroke-width="2" fill="none" opacity="0.5"/>
    <line x1="11" y1="11" x2="22" y2="22" stroke="#d97706" stroke-width="2.5" stroke-linecap="round" opacity="0.5"/>
  </g>
  <!-- Probe icon left -->
  <g transform="translate(85, 100)" opacity="0.4">
    <line x1="0" y1="30" x2="15" y2="0" stroke="#d97706" stroke-width="2" stroke-linecap="round"/>
    <circle cx="15" cy="0" r="3" fill="#d97706"/>
  </g>
  <!-- Dots -->
  <circle cx="50" cy="50" r="2" fill="#fbbf24" opacity="0.4"/>
  <circle cx="350" cy="45" r="2" fill="#fbbf24" opacity="0.4"/>
  <circle cx="40" cy="160" r="1.5" fill="#fbbf24" opacity="0.3"/>
  <circle cx="360" cy="165" r="1.5" fill="#fbbf24" opacity="0.3"/>
</svg>
